<svg width="108" height="75" viewBox="0 0 108 75" fill="none" xmlns="http://www.w3.org/2000/svg">
<path d="M39.0901 36.2058C44.2541 39.5175 46.8361 44.2744 46.8361 50.4763C46.8361 55.9557 44.8845 60.4115 40.9815 63.8437C37.0785 67.2758 32.2448 68.9919 26.4804 68.9919H0L0 5.76807L24.679 5.76807C30.3233 5.76807 35.037 7.45404 38.8199 10.826C42.6628 14.1377 44.5843 18.473 44.5843 23.832C44.5843 28.8899 42.7529 33.0145 39.0901 36.2058ZM24.679 19.316L14.4111 19.316L14.4111 30.5157L24.679 30.5157C26.3002 30.5157 27.6213 30.0039 28.6421 28.9802C29.6628 27.8964 30.1732 26.5416 30.1732 24.9158C30.1732 23.2901 29.6628 21.9654 28.6421 20.9418C27.6213 19.8579 26.3002 19.316 24.679 19.316ZM26.4804 55.4439C28.2818 55.4439 29.7229 54.902 30.8037 53.8182C31.8845 52.6741 32.425 51.1989 32.425 49.3925C32.425 47.5861 31.8845 46.141 30.8037 45.0571C29.7229 43.9131 28.2818 43.3411 26.4804 43.3411H14.4111L14.4111 55.4439H26.4804Z" fill="white"/>
<path d="M79.1068 70.2564C69.6795 70.2564 61.8435 67.1253 55.5987 60.8632C49.414 54.5408 53.9777 46.7131 53.9777 37.38C53.9777 28.047 49.414 20.2494 55.5987 13.9872C61.8435 7.66485 69.6795 4.50366 79.1068 4.50366C84.7511 4.50366 89.9752 5.82835 94.7789 8.47773C99.5826 11.0669 103.365 14.6195 106.128 19.1355L93.698 26.361C92.317 23.8923 90.3354 21.9956 87.7535 20.6709C85.1715 19.286 82.2893 18.5935 79.1068 18.5935C73.5225 18.5935 69.0491 20.3096 65.6865 23.7418C62.3839 27.1739 60.7327 31.72 60.7327 37.38C60.7327 43.0401 62.3839 47.5862 65.6865 51.0183C69.0491 54.4505 73.5225 56.1666 79.1068 56.1666C82.2893 56.1666 85.1715 55.4741 87.7535 54.0892C90.3955 52.7043 92.377 50.8076 93.698 48.3991L106.128 55.6246C103.426 60.1406 99.6726 63.7233 94.8689 66.3727C90.0652 68.9618 84.8112 70.2564 79.1068 70.2564Z" fill="white"/>
<ellipse cx="57.5788" cy="37.38" rx="6.75542" ry="37.38" fill="white"/>
<path d="M79.1057 3.15186C84.9691 3.15186 90.4166 4.53 95.4244 7.29072C100.429 9.98935 104.389 13.7052 107.279 18.4298L108 19.6084L93.1884 28.2187L92.5178 27.0199C91.2702 24.7898 89.4873 23.0788 87.1356 21.8723L87.1246 21.8666L87.1137 21.8608C84.7448 20.5902 82.085 19.9439 79.1057 19.9439C73.8231 19.9439 69.7212 21.5547 66.6547 24.6823C63.6418 27.8158 62.0827 32.001 62.0827 37.3793C62.0827 42.7577 63.6418 46.9428 66.6547 50.0763C69.7212 53.204 73.8231 54.8147 79.1057 54.8147C82.085 54.8147 84.7448 54.1685 87.1137 52.8978L87.1194 52.8948L87.1251 52.8918C89.5527 51.6193 91.3302 49.9039 92.5123 47.7486L93.1784 46.5341L107.988 55.1435L107.286 56.3176C104.456 61.0476 100.524 64.7953 95.5203 67.555L95.5146 67.5582L95.5089 67.5613C90.4991 70.2615 85.0234 71.6068 79.1057 71.6068C70.8438 71.6068 63.708 69.2737 57.7593 64.5938V62.8517C63.6206 67.7877 70.736 70.2557 79.1057 70.2557C84.8101 70.2557 90.0641 68.9611 94.8678 66.372C99.2585 63.9504 102.771 60.749 105.406 56.768C105.654 56.3935 105.894 56.0122 106.127 55.6239L93.6969 48.3983C93.5878 48.5972 93.4743 48.7926 93.3562 48.9845C92.0441 51.1166 90.1762 52.8179 87.7524 54.0885C85.1704 55.4734 82.2882 56.1658 79.1057 56.1658C73.5214 56.1658 69.048 54.4498 65.6854 51.0176C62.3828 47.5854 60.7316 43.0394 60.7316 37.3793C60.7316 31.7193 62.3828 27.1732 65.6854 23.741C69.048 20.3089 73.5214 18.5928 79.1057 18.5928C82.2882 18.5928 85.1704 19.2853 87.7524 20.6702C90.1847 21.9181 92.0842 23.6737 93.4508 25.9369C93.5348 26.0761 93.6169 26.2172 93.6969 26.3603L106.127 19.1347C105.89 18.7484 105.646 18.3692 105.395 17.997C102.71 14.018 99.1706 10.8447 94.7778 8.47701C89.9741 5.82763 84.7501 4.50294 79.1057 4.50294C70.736 4.50294 63.6206 6.99466 57.7593 11.9781V10.2295C63.7068 5.50739 70.8426 3.15186 79.1057 3.15186Z" fill="black"/>
</svg>
